<svg id="visual" viewBox="0 0 1440 200" width="1440" height="200" xmlns="http://www.w3.org/2000/svg" xmlns:xlink="http://www.w3.org/1999/xlink" version="1.1"><rect x="0" y="0" width="1440" height="200" fill="#1B6DD0"></rect><defs><linearGradient id="grad1_0" x1="86.1%" y1="100%" x2="100%" y2="0%"><stop offset="-94%" stop-color="#00e4ff" stop-opacity="1"></stop><stop offset="194%" stop-color="#00e4ff" stop-opacity="1"></stop></linearGradient></defs><defs><linearGradient id="grad1_1" x1="86.1%" y1="100%" x2="100%" y2="0%"><stop offset="-94%" stop-color="#00e4ff" stop-opacity="1"></stop><stop offset="194%" stop-color="#00abf4" stop-opacity="1"></stop></linearGradient></defs><defs><linearGradient id="grad1_2" x1="86.1%" y1="100%" x2="100%" y2="0%"><stop offset="-94%" stop-color="#1b6dd0" stop-opacity="1"></stop><stop offset="194%" stop-color="#00abf4" stop-opacity="1"></stop></linearGradient></defs><defs><linearGradient id="grad2_0" x1="0%" y1="100%" x2="13.9%" y2="0%"><stop offset="-94%" stop-color="#00e4ff" stop-opacity="1"></stop><stop offset="194%" stop-color="#00e4ff" stop-opacity="1"></stop></linearGradient></defs><defs><linearGradient id="grad2_1" x1="0%" y1="100%" x2="13.9%" y2="0%"><stop offset="-94%" stop-color="#00abf4" stop-opacity="1"></stop><stop offset="194%" stop-color="#00e4ff" stop-opacity="1"></stop></linearGradient></defs><defs><linearGradient id="grad2_2" x1="0%" y1="100%" x2="13.9%" y2="0%"><stop offset="-94%" stop-color="#00abf4" stop-opacity="1"></stop><stop offset="194%" stop-color="#1b6dd0" stop-opacity="1"></stop></linearGradient></defs><g transform="translate(1440, 200)"><path d="M-180 0C-175.5 -22.1 -170.9 -44.2 -163.5 -67.7C-156.1 -91.2 -145.9 -116.1 -127.3 -127.3C-108.6 -138.4 -81.6 -135.8 -58.9 -142.3C-36.3 -148.8 -18.2 -164.4 0 -180L0 0Z" fill="#008de6"></path><path d="M-120 0C-117 -14.7 -113.9 -29.5 -109 -45.2C-104.1 -60.8 -97.3 -77.4 -84.9 -84.9C-72.4 -92.3 -54.4 -90.5 -39.3 -94.9C-24.2 -99.2 -12.1 -109.6 0 -120L0 0Z" fill="#00c8fb"></path><path d="M-60 0C-58.5 -7.4 -57 -14.7 -54.5 -22.6C-52 -30.4 -48.6 -38.7 -42.4 -42.4C-36.2 -46.1 -27.2 -45.3 -19.6 -47.4C-12.1 -49.6 -6.1 -54.8 0 -60L0 0Z" fill="#00e4ff"></path></g><g transform="translate(0, 0)"><path d="M180 0C179.2 25.5 178.4 50.9 166.3 68.9C154.2 86.8 130.8 97.2 113.8 113.8C96.9 130.5 86.4 153.3 68.5 165.4C50.6 177.4 25.3 178.7 0 180L0 0Z" fill="#008de6"></path><path d="M120 0C119.5 17 118.9 34 110.9 45.9C102.8 57.9 87.2 64.8 75.9 75.9C64.6 87 57.6 102.2 45.7 110.2C33.7 118.3 16.9 119.1 0 120L0 0Z" fill="#00c8fb"></path><path d="M60 0C59.7 8.5 59.5 17 55.4 23C51.4 28.9 43.6 32.4 37.9 37.9C32.3 43.5 28.8 51.1 22.8 55.1C16.9 59.1 8.4 59.6 0 60L0 0Z" fill="#00e4ff"></path></g></svg>